<?xml version="1.0" standalone="no"?>
<!DOCTYPE svg PUBLIC "-//W3C//DTD SVG 20010904//EN"
 "http://www.w3.org/TR/2001/REC-SVG-20010904/DTD/svg10.dtd">
<svg version="1.0" xmlns="http://www.w3.org/2000/svg"
 width="700.000000pt" height="700.000000pt" viewBox="0 0 700.000000 700.000000"
 preserveAspectRatio="xMidYMid meet">
<metadata>
Created by potrace 1.14, written by Peter Selinger 2001-2017
</metadata>
<g transform="translate(0.000000,700.000000) scale(0.100000,-0.100000)"
fill="#000000" stroke="none">
<path d="M794 5955 c-91 -29 -167 -95 -211 -184 -22 -45 -28 -71 -30 -137 -3
-112 27 -188 101 -259 33 -31 324 -207 531 -321 11 -6 119 -69 240 -139 121
-70 240 -139 265 -153 25 -14 99 -57 165 -95 155 -90 201 -106 290 -103 283
11 433 335 260 562 -26 34 -108 92 -200 144 -44 24 -291 166 -315 181 -8 5
-67 39 -130 75 -585 338 -731 419 -769 431 -54 16 -142 15 -197 -2z"/>
<path d="M3435 4744 c-11 -3 -47 -10 -80 -16 -306 -59 -572 -336 -622 -648 -4
-25 -7 -94 -7 -155 1 -123 24 -228 74 -327 l28 -58 -25 -37 c-47 -69 -306
-448 -309 -452 -2 -2 -324 -4 -716 -5 l-713 -1 -55 -27 c-71 -35 -133 -97
-168 -167 -23 -49 -27 -68 -27 -146 0 -131 43 -219 141 -286 96 -66 103 -66
1027 -69 l207 0 0 -47 c0 -69 25 -215 55 -317 102 -352 356 -652 690 -815 123
-60 204 -90 310 -111 96 -20 104 -21 221 -26 94 -3 121 0 173 17 81 28 169
107 201 181 27 62 37 175 21 233 -17 65 -72 147 -126 187 -61 47 -125 67 -230
74 -167 10 -310 71 -421 179 -120 117 -189 263 -198 422 -4 66 -14 48 173 318
60 88 161 234 222 325 62 91 117 168 122 171 5 4 23 3 41 0 17 -4 57 -6 90 -5
143 5 230 26 348 84 410 202 571 698 356 1100 -82 154 -217 283 -366 351 -56
25 -152 59 -152 54 0 -2 -15 1 -32 6 -34 11 -218 20 -253 13z"/>
<path d="M362 4280 c-106 -25 -223 -133 -246 -226 -51 -202 32 -371 218 -441
36 -14 136 -16 806 -18 421 -1 782 2 804 7 279 62 371 404 160 597 -36 34 -73
56 -115 70 -60 20 -77 21 -828 20 -421 -1 -781 -5 -799 -9z"/>
<path d="M5033 4279 c-89 -26 -179 -102 -219 -187 -31 -66 -43 -173 -25 -237
17 -65 72 -147 126 -187 100 -76 59 -72 915 -73 437 -1 780 2 800 8 268 70
360 388 170 584 -38 39 -94 72 -159 92 -42 13 -1561 13 -1608 0z"/>
<path d="M4795 3315 c-108 -25 -197 -96 -244 -195 -21 -46 -26 -69 -26 -145 0
-78 4 -97 27 -146 50 -101 59 -107 478 -349 107 -62 215 -124 240 -138 25 -14
182 -105 350 -202 404 -234 383 -224 495 -223 128 2 247 80 302 198 24 52 28
72 28 150 0 77 -4 98 -27 145 -15 30 -46 74 -70 97 -35 34 -295 192 -528 321
-25 14 -92 53 -150 87 -58 34 -125 73 -150 87 -116 65 -456 261 -465 268 -24
19 -119 50 -162 53 -27 2 -70 -2 -98 -8z"/>
</g>
</svg>
